<svg id="Layer_1" data-name="Layer 1" xmlns="http://www.w3.org/2000/svg" viewBox="0 0 179.06 153.96"><g id="Layer_1-2" data-name="Layer 1"><g id="EjBSXR.tif"><path d="M181.7,84.9c-10-.1-19.3-.2-28.6-.2-3.8-13.6-13.2-20.9-27.7-21.5-14-.6-24.3,6.4-29.5,20.8q-.6-.75-.9-1.2C92.5,69.6,78.8,62,65.4,62.6c-9.3.4-17.6,3.7-23.3,11.5-1,1.4-2.2,3-2.4,4.6-.6,4.7-3.3,5.1-7.3,5-7.4-.4-14.9-.2-22.9-.2A91,91,0,0,1,26.8,57.6C34.1,50.2,42,43.8,49.6,37c-7.2-5.3-16.3-9.7-19.8-20.8,7,3.8,13.2,7,19.3,10.3.2-.4.6-.6.9-1-4-6.3-8.7-12.3-10.5-20.7,8.7,6.6,16,13.2,26,17-2.7-5.7-5.1-10.6-7.8-16.6,1.6.4,2,.4,2.2.5,9.9,11.5,22.8,15.7,37.6,17.8,36.9,5.1,65.6,22.8,82.5,57.1A28.79,28.79,0,0,0,181.7,84.9Z" transform="translate(-5.52 -4.8)" /><path d="M22.3,90.4h4.6A25.1,25.1,0,0,0,40,87.8c11.4-5.3,22.8-4.3,33.7,2a12.75,12.75,0,0,1,1.2.7c7.7,7.4,17.2,8.9,27.2,7.8a8.75,8.75,0,0,0,4.2-1.4c2.5-1.5,4.8-3.1,7.3-4.7,12.8-8.5,25.8-9.2,39.4-2.4a19.19,19.19,0,0,0,7.1,1.9c6.3.2,12.6.2,18.9.2,2.5,0,4.8.6,5.4,3,.5,2-.2,4.2-.5,6.4a.22.22,0,0,1-.2.2c-5.7,3.7-5.1,9.8-6.1,15.4-2.1,11.4-5.4,22.3-14,30.8-11,10.9-28.4,14.1-42.8,8-14-5.8-22.5-19.1-22.4-35,0-2.5-.6-4.7-3.1-4.6-3,.1-3.7,2.6-3.8,5.4C91,142.6,75.1,158,54.1,157.8c-17.1-.1-30.6-8.9-36.5-24.9-2.8-7.8-4-16.3-5.6-24.5-.4-2.2-.5-4.3-2.6-5.8a10.27,10.27,0,0,1-3.2-4.2c-2-4.1.6-8,5.1-8A100.9,100.9,0,0,1,22.3,90.4Zm3.6,30.4A29,29,0,1,0,55.3,92.3,28.77,28.77,0,0,0,25.9,120.8Zm80.4.9a29,29,0,1,0,29.1-28.5A28.83,28.83,0,0,0,106.3,121.7Z" transform="translate(-5.52 -4.8)" /><path d="M63.7,109.6c-4.1,8.5.6,15,9.8,14.5a11,11,0,0,1-13.2,9,12,12,0,0,1-9.9-13.5C51.4,112.8,56.7,108.7,63.7,109.6Z" transform="translate(-5.52 -4.8)" /><path d="M116.4,124.5c10.2.5,13.7-6.8,10-14.4,6.8-.7,12.6,3.7,13.2,10.3a12.2,12.2,0,0,1-10.5,13.4A11,11,0,0,1,116.4,124.5Z" transform="translate(-5.52 -4.8)" /></g></g></svg>