<?xml version="1.0" encoding="utf-8"?>
<!-- Generator: Adobe Illustrator 24.3.0, SVG Export Plug-In . SVG Version: 6.00 Build 0)  -->
<svg version="1.1" id="Layer_1" xmlns="http://www.w3.org/2000/svg" xmlns:xlink="http://www.w3.org/1999/xlink" x="0px" y="0px"
	 viewBox="0 0 512 419.5" style="enable-background:new 0 0 512 419.5;" xml:space="preserve">
<style type="text/css">
	.st0{fill:#545050;}
</style>
<g id="Layer_1_1_">
	<g id="EjBSXR.tif">
		<g>
			<path class="st0" d="M483.1,218.2c-26.3-0.3-50.7-0.6-75-0.6c-10.1-35.7-34.8-54.9-72.8-56.5c-36.7-1.6-63.7,16.9-77.3,54.6
				c-1-1.3-1.9-2.3-2.3-3.2c-6.5-34.8-42.6-54.6-77.6-52.9c-24.4,1-46.1,9.7-61.1,30.2c-2.6,3.6-5.8,7.8-6.2,12
				c-1.6,12.3-8.8,13.3-19.2,13c-19.5-1-39-0.6-60.1-0.6c12-26.3,26.6-48.7,45.5-67.9c18.8-18.8,39.6-35.7,59.4-53.6
				c-18.8-14-42.9-25.3-52-54.6c18.5,10.1,34.8,18.5,50.7,27c0.6-1,1.6-1.6,2.3-2.6C127.1,45.7,114.7,30.1,109.8,8
				c22.7,17.2,41.9,34.8,68.2,44.5c-7.1-14.9-13.3-27.9-20.5-43.5c4.2,1,5.2,1,5.8,1.3c26,30.2,59.8,41.3,98.7,46.8
				c96.8,13.3,172.2,59.8,216.3,149.7C479.8,210,480.8,213.3,483.1,218.2z"/>
			<path class="st0" d="M65,232.5c3.9,0,8.1,0,12,0c12,1,23.1-1.6,34.4-6.8c29.9-14,59.8-11.4,88.4,5.2c1,0.6,2.3,1.3,3.2,1.9
				c20.1,19.5,45.2,23.4,71.5,20.5c3.9-0.3,7.8-1.6,11-3.6c6.5-3.9,12.7-8.1,19.2-12.3c33.5-22.4,67.6-24,103.3-6.2
				c5.5,2.9,12.3,4.5,18.5,4.9c16.6,0.6,33.1,0.6,49.7,0.6c6.5,0,12.7,1.6,14.3,7.8c1.3,5.2-0.6,11-1.3,16.9c0,0.3-0.3,0.6-0.6,0.6
				c-14.9,9.7-13.3,25.7-15.9,40.3c-5.5,29.9-14.3,58.5-36.7,80.9c-28.9,28.6-74.4,37-112.4,21.1c-36.7-15.3-59.1-50-58.8-91.9
				c0-6.5-1.6-12.3-8.1-12c-7.8,0.3-9.7,6.8-10.1,14.3c-1.3,54.9-43.2,95.2-98.1,94.9c-44.8-0.3-80.2-23.4-95.8-65.3
				c-7.5-20.5-10.4-42.9-14.6-64.3c-1-5.8-1.3-11.4-6.8-15.3c-3.6-2.6-6.5-6.8-8.4-11c-5.2-10.7,1.6-21.1,13.3-21.1
				C45.8,232.1,55.6,232.1,65,232.5z M74.4,312.4c-0.3,41.9,32.8,76.3,74.7,76.7c42.2,1,77-32.8,77.3-75c0.3-41.9-32.8-76-75-76.3
				C108.5,237,75.1,269.8,74.4,312.4z M285.2,314.6c-0.3,42.6,32.8,76.3,75.4,77c41.6,0.3,76-33.1,76.7-75
				c0.3-42.2-33.1-76.3-75.7-76.7C319.7,239.6,285.6,272.7,285.2,314.6z"/>
			<path class="st0" d="M173.5,282.8c-10.7,22.4,1.6,39.3,25.7,38c-2.9,16.2-18.2,27-34.8,23.7c-16.9-2.9-28.6-18.5-26-35.4
				C141.3,291.3,155.3,280.5,173.5,282.8z"/>
			<path class="st0" d="M311.9,322.1c26.6,1.3,36.1-17.9,26.3-37.7c17.9-1.9,33.1,9.7,34.8,27c1.6,17.5-10.4,33.1-27.6,35.1
				C329.1,349.1,314.2,338,311.9,322.1z"/>
		</g>
	</g>
</g>
<g id="javascript_1_">
</g>
</svg>
