<?xml version="1.0" encoding="utf-8"?>
<!-- Generator: Adobe Illustrator 24.3.0, SVG Export Plug-In . SVG Version: 6.00 Build 0)  -->
<svg version="1.1" xmlns="http://www.w3.org/2000/svg" xmlns:xlink="http://www.w3.org/1999/xlink" x="0px" y="0px"
	 viewBox="0 0 512 132" style="enable-background:new 0 0 512 132;" xml:space="preserve">
<style type="text/css">
	.st0{fill:#8A8A8A;}
	.st1{fill:#393939;}
</style>
<g id="javascript">
	<g>
		<path class="st0" d="M380.43,109.1c-0.93,5.16-1.97,10.13-2.68,15.15c-0.35,2.45-1.24,3.46-3.81,3.32
			c-3.6-0.2-7.22-0.05-11.53-0.05c3.11-17.61,6.16-34.82,9.21-52.1c4.94,0,9.53,0,14.22,0c0.11,0.91,0.2,1.71,0.29,2.46
			c2.4-1,4.59-2.25,6.94-2.84c9.48-2.35,17.42,3.79,17.67,13.52c0.21,8.28-2.73,15.16-9.35,20.25
			C394.77,113.91,387.61,114.01,380.43,109.1z M382.84,95.39c-0.01,3.54,2.1,6.05,5.13,6.11c4.07,0.08,7.88-4.64,7.83-9.72
			c-0.03-3.58-2.19-6-5.27-5.91C386.54,85.98,382.85,90.56,382.84,95.39z"/>
		<path class="st0" d="M274.79,75.62c-3.03,0.86-6.13,1.75-9.24,2.6c-0.82,0.22-1.68,0.32-2.43,0.47c-2.36-4.3-4.59-5.54-7.59-4.03
			c-0.97,0.49-2.01,1.65-2.17,2.65c-0.12,0.69,1.04,1.97,1.91,2.39c2.46,1.19,5.09,2.03,7.62,3.08c5.41,2.24,10.27,5.16,10.34,11.87
			c0.08,7.02-3.3,12.17-9.61,15.24c-6.66,3.25-13.67,3.83-20.78,1.84c-7.03-1.97-10.48-7.24-9.64-14.52
			c3.77-0.84,7.63-1.7,11.41-2.55c3.02,5.91,6.14,7.77,10.6,6.13c1.23-0.45,2.81-1.74,2.96-2.82c0.12-0.92-1.37-2.48-2.51-3.07
			c-2.53-1.31-5.29-2.19-7.95-3.25c-10.6-4.25-12.77-14.03-4.98-22.41c5.57-5.98,16.62-8.43,24.27-5.38
			C271.93,65.81,274.84,70.12,274.79,75.62z"/>
		<path class="st0" d="M127.17,78.33c0.43-1.15,0.77-2.04,1.09-2.89c4.72,0,9.32,0,14.38,0c-2.12,12.21-4.21,24.2-6.32,36.38
			c-4.76,0-9.33,0-14.19,0c-0.13-0.73-0.29-1.6-0.38-2.06c-3.15,1.01-6.11,2.51-9.21,2.86c-8.58,0.99-15.07-4.9-15.43-13.51
			c-0.48-11.67,6.47-21.64,16.77-24.04C119.15,73.86,122.6,74.64,127.17,78.33z M124.98,91.87c-0.01-3.57-2.14-6.04-5.19-6.01
			c-4.09,0.04-7.89,4.81-7.8,9.81c0.06,3.35,2.12,5.74,5.02,5.83C121.07,101.62,124.99,96.89,124.98,91.87z"/>
		<path class="st0" d="M232.42,75.73c-2.1,12.03-4.2,24.04-6.32,36.17c-4.78,0-9.37,0-14.22,0c-0.09-0.89-0.18-1.81-0.27-2.75
			c-0.28,0.06-0.55,0.05-0.71,0.17c-5.56,4.19-11.57,4.77-17.53,1.35c-5.83-3.35-6.87-9.08-6.33-15.31
			c0.83-9.62,7.28-17.8,15.93-20.1c5.71-1.52,9.43-0.72,13.94,3.05c0.43-1.01,0.85-2,1.26-2.98c4.39,0,8.64-0.01,12.88,0.01
			C231.43,75.35,231.78,75.54,232.42,75.73z M210.28,85.87c-5.06-0.12-9.53,6.15-8.41,11.1c0.94,4.14,4.7,5.78,8.29,3.5
			c3.33-2.12,4.83-5.35,4.66-9.18C214.69,88.25,213.02,86.22,210.28,85.87z"/>
		<path class="st0" d="M98.72,63.3c-2.59,12.19-4.21,24-7.73,35.23c-3.91,12.49-19.33,18.01-31.28,12.44
			c-6.54-3.05-9.09-10.62-6.17-18.28c2.36-6.2,3.54-7.01,10.06-7.01c2.35,0,4.7,0,7.42,0c-1.2,2.46-2.33,4.49-3.19,6.63
			c-1.1,2.75-1.25,5.48,1.75,7.2c2.15,1.24,5.76-0.29,7.04-3.34c1.19-2.83,1.87-5.93,2.46-8.97c1.37-7.1,2.49-14.25,3.9-21.34
			c0.19-0.96,1.47-2.38,2.31-2.43C89.38,63.16,93.5,63.3,98.72,63.3z"/>
		<path class="st0" d="M161.08,75.46c1.1,6.33,2.17,12.56,3.25,18.78c0.26,0.09,0.53,0.17,0.79,0.26c2.37-4.53,5.11-8.91,7.01-13.63
			c1.82-4.51,4.48-6.31,9.3-5.64c3.01,0.41,6.12,0.08,9.84,0.08c-2.62,4.25-4.87,7.94-7.15,11.61c-4.74,7.64-9.42,15.31-14.32,22.85
			c-0.72,1.11-2.42,2.07-3.75,2.19c-3.46,0.3-6.97,0.1-10.81,0.1c-3.35-12.18-6.68-24.25-10.08-36.59
			C150.56,75.46,155.54,75.46,161.08,75.46z"/>
		<path class="st0" d="M434.83,75.31c2.79,0,5.38,0,8.41,0c-0.53,3.29-0.8,6.26-1.61,9.07c-0.22,0.76-2.02,1.45-3.13,1.5
			c-5.63,0.26-5.65,0.18-6.63,5.7c-0.41,2.33-0.87,4.67-1.1,7.02c-0.08,0.79,0.5,1.65,0.77,2.48c0.67-0.61,1.61-1.11,1.94-1.87
			c0.47-1.08,0.49-2.35,0.76-3.82c1.3,0,2.53,0,3.76,0c6.21-0.01,6.83,0.87,5.01,7.02c-2.73,9.21-15.34,13.67-23.32,8.25
			c-3.02-2.05-4-5.12-3.71-8.48c0.35-3.96,1.16-7.89,1.76-11.83c0.2-1.31,0.38-2.63,0.59-4.15c-1.71-0.18-3.04-0.32-4.67-0.49
			c0.58-3.48,1.12-6.75,1.7-10.26c2.18-0.1,4.26-0.2,6.35-0.29c1.26-2.92,1.77-7.13,3.9-8.24c2.73-1.42,6.76-0.35,10.58-0.35
			C435.74,69.46,435.31,72.21,434.83,75.31z"/>
		<path class="st0" d="M316.28,80.07c-3.26,3.14-6.09,5.87-8.96,8.63c-6.11-3.63-9.97-3.53-13.64,0.41
			c-2.88,3.09-3.42,7.15-1.31,9.84c2.52,3.21,5.98,3.13,13.58-0.46c0.91,1.38,1.86,2.81,2.78,4.25c0.86,1.34,1.69,2.69,2.5,3.97
			c-7.1,6.36-18.98,7.92-26.86,3.75c-7.32-3.88-10.12-12.78-6.63-21.05c5.06-11.98,20.9-18.33,32.75-13.02
			C312.47,77.26,314.19,78.71,316.28,80.07z"/>
		<path class="st0" d="M347.17,74.9c-0.84,4.74-1.64,9.24-2.46,13.86c-1.29-0.09-2.26-0.17-3.24-0.22c-5.19-0.31-8.35,1.84-9.5,6.94
			c-1.2,5.34-2.04,10.76-3.08,16.34c-4.73,0-9.39,0-14.59,0c2.11-12.16,4.19-24.12,6.3-36.29c4.71,0,9.25,0,13.96,0
			c-0.11,1.26-0.22,2.47-0.38,4.19C338,76.27,341.8,73.79,347.17,74.9z"/>
		<path class="st0" d="M344.3,111.83c2.11-12.17,4.19-24.14,6.3-36.31c4.85,0,9.52,0,14.68,0c-2.11,12.16-4.19,24.13-6.31,36.31
			C354.16,111.83,349.49,111.83,344.3,111.83z"/>
		<path class="st0" d="M360.86,60.39c4.4,0.01,7.03,2.15,6.92,5.63c-0.15,4.38-4.13,7.52-9.54,7.5c-4.26-0.01-6.77-1.94-6.84-5.26
			C351.3,63.59,355.16,60.38,360.86,60.39z"/>
	</g>
</g>
<g id="crack_and_code">
	<g>
		<path class="st1" d="M368.69,22.93c0.76-4.15,1.61-8.8,2.5-13.65c2.94,0,5.75,0,8.99,0c-2.42,13.81-4.79,27.39-7.21,41.22
			c-2.93,0-5.72,0-8.64,0c-0.09-0.73-0.17-1.46-0.27-2.26c-0.36,0.1-0.72,0.15-1.04,0.29c-2.04,0.88-3.99,2.17-6.12,2.6
			c-7.36,1.47-13.35-2.88-13.99-10.32c-0.91-10.62,6.12-20.4,16.66-20.18C362.49,20.69,365.4,22.06,368.69,22.93z M366.68,34.26
			c-0.04-3.78-2.63-6.44-6.23-6.39c-4.44,0.06-8.37,4.61-8.39,9.73c-0.01,3.73,2.41,6.37,5.82,6.35
			C362.7,43.91,366.74,39.46,366.68,34.26z"/>
		<path class="st1" d="M234.61,9.22c3.03,0,5.74,0,9,0c-1.26,7.36-2.48,14.49-3.7,21.62c0.16,0.09,0.33,0.18,0.49,0.27
			c2.98-3.31,5.96-6.62,8.87-9.85c3.37,0,6.54,0,9.72,0c0.18,0.25,0.37,0.5,0.55,0.75c-3.98,4.18-7.97,8.36-12.31,12.92
			c1.53,2.78,3.07,5.61,4.57,8.35c1.99-0.41,3.19-0.66,4.88-1.01c0.72,1.85,1.46,3.75,2.16,5.55c-5.31,5.71-13.63,4.62-16.85-2.01
			c-1.03-2.11-1.99-4.25-3.57-6.35c-0.7,3.68-1.39,7.36-2.11,11.15c-2.93,0-5.63,0-8.94,0C229.81,36.69,232.2,23.01,234.61,9.22z"/>
		<path class="st1" d="M184.93,22.85c-0.01,0.01,0.3-0.73,0.68-1.65c2.7,0,5.39,0,8.74,0c-1.73,9.87-3.41,19.48-5.13,29.32
			c-2.87,0-5.56,0-8.54,0c-0.12-0.63-0.27-1.42-0.44-2.29c-0.35,0.11-0.72,0.16-1.03,0.34c-0.98,0.55-1.88,1.24-2.9,1.69
			c-9.25,4.12-18.24-2.41-17.22-12.48c1.04-10.23,7.37-17.11,16.39-17.12C178.53,20.66,181.57,22.03,184.93,22.85z M182.93,34.27
			c-0.04-3.79-2.61-6.44-6.22-6.41c-4.44,0.05-8.37,4.59-8.4,9.71c-0.02,3.73,2.4,6.38,5.81,6.36
			C178.93,43.92,182.98,39.48,182.93,34.27z"/>
		<path class="st1" d="M412.18,38.12c-7.7,0-15.28,0-22.89,0c0.9,6.59,7.18,7.52,16.07,2.37c1.36,1.52,2.79,3.12,4.18,4.67
			c-5.27,6.27-16.64,8.02-23.65,4.16c-5.24-2.88-7.08-9.4-4.75-16.16c3.08-8.91,13.05-14.44,22.23-12.32
			C410.53,22.5,414.29,29.53,412.18,38.12z M404.16,32.35c-0.91-3.32-3.12-4.25-5.87-4.38c-3.55-0.16-6.06,1.47-6.98,4.38
			C395.45,32.35,399.61,32.35,404.16,32.35z"/>
		<path class="st1" d="M326.27,20.5c10.03,0.04,15.76,7.77,12.94,17.46c-2.81,9.65-13.84,15.63-23.45,12.73
			c-7.11-2.14-10.48-9.34-8.06-17.19C310.05,25.83,317.72,20.47,326.27,20.5z M331.12,34.59c0.03-3.26-2.87-6.22-6.16-6.29
			c-4.43-0.09-9.31,4.72-9.25,9.11c0.05,3.29,2.95,6.07,6.34,6.08C326.33,43.49,331.08,38.83,331.12,34.59z"/>
		<path class="st1" d="M220.91,40.22c1.02,2.31,1.92,4.33,2.88,6.49c-5.7,4.24-11.8,5.7-18.46,3.85c-7.23-2-10.39-9.17-7.84-17.24
			c3.92-12.44,19.85-16.98,30.23-8.21c-1.65,2.07-3.31,4.16-5.1,6.4c-3.02-2.09-6.05-3.71-9.54-2.47c-1.81,0.64-3.66,1.63-5.02,2.94
			c-2.42,2.33-2.81,5.42-1.53,7.87c1.27,2.43,4.52,3.79,7.78,3.17c1.09-0.21,2.17-0.59,3.2-1.02
			C218.52,41.57,219.48,40.97,220.91,40.22z"/>
		<path class="st1" d="M136.06,25.08c-1.87,2.31-3.49,4.31-5.21,6.44c-3.01-2.24-6.07-3.58-9.58-2.47c-1.5,0.48-3.05,1.17-4.24,2.17
			c-2.78,2.33-3.61,6.13-2.19,8.69c1.48,2.66,4.94,3.93,8.53,2.9c1.89-0.54,3.68-1.45,5.93-2.36c0.9,2,1.83,4.07,2.81,6.26
			c-5.79,4.28-11.89,5.71-18.55,3.82c-6.46-1.83-9.48-7.3-8.3-14.69c1.13-7.07,5.3-11.85,11.9-14.11
			C123.72,19.48,130.17,19.73,136.06,25.08z"/>
		<path class="st1" d="M300.19,40.19c1.06,2.33,1.97,4.33,2.97,6.51c-5.91,4.29-12.09,5.81-18.86,3.7
			c-6.95-2.16-9.83-8.7-7.65-16.71c3.41-12.52,20.16-17.5,30.27-8.61c-1.61,2.08-3.23,4.18-4.98,6.43
			c-3.05-2.16-6.02-3.45-9.61-2.56c-3.6,0.89-6.52,3.72-7.2,7.29c-0.53,2.81,1.32,5.51,4.38,6.49
			C293.36,43.96,296.57,42.27,300.19,40.19z"/>
		<path class="st1" d="M141.09,21.28c1.04-0.13,1.65-0.25,2.25-0.26c1.99-0.03,3.98-0.01,6.16-0.01c0.15,1.04,0.27,1.96,0.46,3.24
			c2.94-2.7,5.93-4.57,10.12-3.28c-0.48,2.76-0.94,5.41-1.43,8.3c-1.12-0.05-2.07-0.13-3.03-0.13c-4.32-0.02-7.12,2.12-7.96,6.36
			c-0.97,4.88-1.75,9.79-2.67,14.97c-2.84,0-5.62,0-9,0C137.68,40.77,139.36,31.16,141.09,21.28z"/>
	</g>
</g>
</svg>
