<?xml version="1.0" encoding="utf-8"?>
<!-- Generator: Adobe Illustrator 24.3.0, SVG Export Plug-In . SVG Version: 6.00 Build 0)  -->
<svg version="1.1" id="Layer_1" xmlns="http://www.w3.org/2000/svg" xmlns:xlink="http://www.w3.org/1999/xlink" x="0px" y="0px"
	 viewBox="0 0 194 163" style="enable-background:new 0 0 194 163;" xml:space="preserve">
<style type="text/css">
	.st0{fill:#ffffff;}
</style>
<g id="Layer_1_1_">
	<g id="EjBSXR.tif">
		<g>
			<path class="st0" d="M181.7,84.9c-10-0.1-19.3-0.2-28.6-0.2c-3.8-13.6-13.2-20.9-27.7-21.5c-14-0.6-24.3,6.4-29.5,20.8
				c-0.4-0.5-0.7-0.9-0.9-1.2c-2.5-13.2-16.2-20.8-29.6-20.2c-9.3,0.4-17.6,3.7-23.3,11.5c-1,1.4-2.2,3-2.4,4.6
				c-0.6,4.7-3.3,5.1-7.3,5c-7.4-0.4-14.9-0.2-22.9-0.2c4.6-10,10.2-18.6,17.3-25.9C34.1,50.2,42,43.8,49.6,37
				c-7.2-5.3-16.3-9.7-19.8-20.8C36.8,20,43,23.2,49.1,26.5c0.2-0.4,0.6-0.6,0.9-1c-4-6.3-8.7-12.3-10.5-20.7c8.7,6.6,16,13.2,26,17
				c-2.7-5.7-5.1-10.6-7.8-16.6c1.6,0.4,2,0.4,2.2,0.5c9.9,11.5,22.8,15.7,37.6,17.8c36.9,5.1,65.6,22.8,82.5,57.1
				C180.4,81.8,180.8,83.1,181.7,84.9z"/>
			<path class="st0" d="M22.3,90.4c1.5,0,3.1,0,4.6,0c4.6,0.4,8.8-0.6,13.1-2.6c11.4-5.3,22.8-4.3,33.7,2c0.4,0.2,0.9,0.5,1.2,0.7
				c7.7,7.4,17.2,8.9,27.2,7.8c1.5-0.1,3-0.6,4.2-1.4c2.5-1.5,4.8-3.1,7.3-4.7c12.8-8.5,25.8-9.2,39.4-2.4c2.1,1.1,4.7,1.7,7.1,1.9
				c6.3,0.2,12.6,0.2,18.9,0.2c2.5,0,4.8,0.6,5.4,3c0.5,2-0.2,4.2-0.5,6.4c0,0.1-0.1,0.2-0.2,0.2c-5.7,3.7-5.1,9.8-6.1,15.4
				c-2.1,11.4-5.4,22.3-14,30.8c-11,10.9-28.4,14.1-42.8,8c-14-5.8-22.5-19.1-22.4-35c0-2.5-0.6-4.7-3.1-4.6c-3,0.1-3.7,2.6-3.8,5.4
				C91,142.6,75.1,158,54.1,157.8c-17.1-0.1-30.6-8.9-36.5-24.9c-2.8-7.8-4-16.3-5.6-24.5c-0.4-2.2-0.5-4.3-2.6-5.8
				c-1.4-1-2.5-2.6-3.2-4.2c-2-4.1,0.6-8,5.1-8C15,90.2,18.7,90.2,22.3,90.4z M25.9,120.8c-0.1,16,12.5,29.1,28.5,29.2
				c16.1,0.4,29.3-12.5,29.5-28.6c0.1-16-12.5-29-28.6-29.1C38.9,92.1,26.2,104.6,25.9,120.8z M106.3,121.7
				c-0.1,16.2,12.5,29.1,28.7,29.3c15.8,0.1,29-12.6,29.2-28.6c0.1-16.1-12.6-29.1-28.8-29.2C119.4,93.1,106.4,105.7,106.3,121.7z"
				/>
			<path class="st0" d="M63.7,109.6c-4.1,8.5,0.6,15,9.8,14.5c-1.1,6.2-6.9,10.3-13.2,9c-6.4-1.1-10.9-7.1-9.9-13.5
				C51.4,112.8,56.7,108.7,63.7,109.6z"/>
			<path class="st0" d="M116.4,124.5c10.2,0.5,13.7-6.8,10-14.4c6.8-0.7,12.6,3.7,13.2,10.3c0.6,6.7-4,12.6-10.5,13.4
				C123,134.8,117.3,130.6,116.4,124.5z"/>
		</g>
	</g>
</g>
<g id="javascript_1_">
</g>
</svg>
