<?xml version="1.0" encoding="utf-8"?>
<!-- Generator: Adobe Illustrator 24.3.0, SVG Export Plug-In . SVG Version: 6.00 Build 0)  -->
<svg version="1.1" id="Layer_1" xmlns="http://www.w3.org/2000/svg" xmlns:xlink="http://www.w3.org/1999/xlink" x="0px" y="0px"
	 viewBox="0 0 512 512" style="enable-background:new 0 0 512 512;" xml:space="preserve">
<style type="text/css">
	.st0{fill:#ffffff;}
	.st1{fill:#ffffff;}
</style>
<path class="st0" d="M259.2,28.1C131,26.3,26.3,131,28.1,259.2c1.8,123,101.8,223,224.8,224.8C381,485.7,485.7,381,483.9,252.8
	C482.2,129.9,382.1,29.8,259.2,28.1z M397.7,386.6c-1.6,1.8-4.4,1.9-6.1,0.2c-0.2-0.2-0.3-0.4-0.5-0.5
	c-9.8-12.8-21.8-23.8-35.5-32.4c-27.8-17.9-63.2-27.7-99.5-27.7s-71.7,9.9-99.5,27.7c-13.6,8.7-25.6,19.6-35.4,32.4
	c-1.4,2-4.2,2.3-6.1,0.9c-0.2-0.1-0.4-0.3-0.5-0.5c-32.3-34.6-50.5-80-51.3-127.3C61.4,152.7,148.8,63.4,255.6,63.1
	c106.7-0.2,193.3,86.4,193.3,192.9C448.9,304.4,430.7,351.1,397.7,386.6z"/>
<path class="st1" d="M256,144c-19.7,0-37.6,7.4-50.2,20.8s-19,32-17.6,51.9C191.1,256,221.5,288,256,288s64.8-32,67.8-71.2
	c1.5-19.7-4.8-38.1-17.7-51.8C293.4,151.4,275.6,144,256,144z"/>
</svg>
