<?xml version="1.0" encoding="utf-8"?>
<!-- Generator: Adobe Illustrator 24.3.0, SVG Export Plug-In . SVG Version: 6.00 Build 0)  -->
<svg version="1.1" id="Layer_1" xmlns="http://www.w3.org/2000/svg" xmlns:xlink="http://www.w3.org/1999/xlink" x="0px" y="0px"
	 viewBox="0 0 328.5 269.3" style="enable-background:new 0 0 328.5 269.3;" xml:space="preserve">
<style type="text/css">
	.st0{fill:#2E2C2C;}
</style>
<g id="Layer_1_1_">
	<g id="EjBSXR.tif">
		<g>
			<path class="st0" d="M315.3,138.4c-16.7-0.2-32.1-0.4-47.4-0.5c-6.4-22.6-22.1-34.7-46-35.8c-23.4-1-40.4,10.8-49.1,34.6
				c-0.6-0.8-1.2-1.4-1.4-2c-4.1-21.9-27-34.5-49.2-33.6c-15.5,0.7-29.1,6.1-38.6,19.1c-1.7,2.3-3.7,5-4,7.7
				c-1,7.8-5.6,8.5-12.2,8.2c-12.3-0.6-24.6-0.4-38-0.5c7.7-16.6,16.8-30.9,28.7-43c11.9-11.9,25-22.7,37.6-34
				C84.1,50,68.8,42.8,63,24.2c11.8,6.3,21.9,11.7,32,17.1c0.5-0.6,1-1.1,1.5-1.7C89.9,29.1,82.1,19.2,79,5.2
				c14.3,10.9,26.5,22.1,43.2,28.2c-4.5-9.4-8.4-17.7-13-27.5c2.6,0.6,3.3,0.6,3.6,0.9c16.5,19.1,37.9,26.2,62.4,29.6
				c61.2,8.5,108.9,37.8,137,94.7C313.2,133.1,314,135.2,315.3,138.4z"/>
			<path class="st0" d="M50.8,147.3c2.5,0,5.1-0.1,7.6,0.1c7.7,0.6,14.5-1,21.7-4.4c18.9-8.8,37.8-7.2,56,3.2
				c0.7,0.4,1.5,0.8,2.1,1.3c12.8,12.3,28.5,14.7,45.3,13c2.4-0.2,4.9-1,6.9-2.2c4.2-2.4,8.1-5.2,12.1-7.8
				c21.1-14.1,42.8-15.3,65.4-4c3.5,1.8,7.8,2.9,11.8,3.1c10.5,0.5,21,0.5,31.4,0.4c4.2,0,8.1,1,9,5c0.8,3.3-0.5,7-0.8,10.6
				c0,0.2-0.2,0.4-0.4,0.5c-9.5,6.1-8.5,16.2-10,25.4c-3.4,19-9,37.1-23.2,51.2c-18.2,18.1-47.1,23.5-71.2,13.3
				c-23.2-9.7-37.4-31.7-37.3-58.2c0.1-4.1-1-7.9-5.2-7.7c-4.9,0.2-6.2,4.4-6.4,9.1c-0.9,34.7-27.3,60.2-62,60
				c-28.3-0.2-50.8-14.7-60.6-41.4c-4.7-13-6.6-27.1-9.2-40.8c-0.7-3.8-0.9-7.1-4.4-9.7c-2.2-1.7-4.1-4.3-5.3-6.9
				c-3.2-6.8,1.1-13.4,8.5-13.4C38.7,147.1,44.8,147.2,50.8,147.3z M56.7,198c-0.3,26.6,20.7,48.3,47.2,48.6
				c26.8,0.4,48.8-20.9,49-47.6c0.2-26.5-20.8-48.1-47.4-48.4C78.4,150.2,57.1,171,56.7,198z M190.1,199.4
				c-0.2,27,20.8,48.4,47.7,48.7c26.4,0.2,48.1-21,48.5-47.4c0.3-26.8-20.9-48.3-47.9-48.6C211.9,151.8,190.3,172.8,190.1,199.4z"/>
			<path class="st0" d="M119.4,179.2c-6.7,14.2,1.1,24.9,16.3,24.1c-1.8,10.3-11.6,17-22.1,15.1c-10.7-1.8-18-11.8-16.4-22.4
				C99,184.6,108,177.7,119.4,179.2z"/>
			<path class="st0" d="M207.1,204.2c16.9,0.9,22.9-11.4,16.7-23.8c11.4-1.2,20.9,6.1,22,17.1c1.1,11.1-6.5,20.9-17.5,22.2
				C217.9,221.1,208.5,214.2,207.1,204.2z"/>
		</g>
	</g>
</g>
<g id="javascript">
</g>
</svg>
