<svg id="icon" data-name="Layer 1" xmlns="http://www.w3.org/2000/svg" viewBox="0 0 481.5 459.4"><g id="tLLAIy"><path d="M189.49,69.85c16.35,4.82,31,9.63,46,13.36,7,1.75,14.48,2.06,21.82,1.94,13.51-.22,25.95-6,37.23-16.63,6.84-6.43,13.74-12.77,20.75-18.9A60.2,60.2,0,0,1,344,35.23c16.18-3,27.61,4.84,35.49,20C390.29,76,391,100.2,388.71,125.07c-.74,8.23-2.4,16.44-3.65,24.66-1.58,10.33,1.16,15.42,9.62,15.3,7.31-.11,14.74-1.65,22.1-2.91a59,59,0,0,0,12.58-3.36c19.46-8.09,34.24.68,47.24,14.61,17.43,18.67,16.59,50-1.67,74.6-14.16,19.09-32.35,29.11-51.51,35.39-18.92,6.21-38.17,10.1-57.16,15.85a84.56,84.56,0,0,0-22.37,10.62c-9.77,6.55-13.45,16.43-10.18,28.45,2.52,9.28,7.06,17.62,11.2,26,3.64,7.35,8.28,13.89,11.92,21.24a31.4,31.4,0,0,1,.32,27.32c-18.62,40.25-44.48,70.12-81.84,79.62-26.29,6.69-47.54-8.53-57.06-38.16-2.66-8.27-4-17.32-5.88-26-2.14-9.66-3.71-19.63-6.52-28.92-5.75-19-17.37-26.7-34.56-23.83-15.36,2.56-29.54,9.58-42.3,21.61-7.88,7.43-15.4,15.54-23.54,22.46C88.35,434.14,70.09,441.5,51,433.83,12.45,418.38-7.62,359.26,21.61,312.68c20.68-33,46.34-58.65,76.57-77.1,7.65-4.66,15.38-9.13,22.93-14.05,17.37-11.33,24.18-27.15,20.76-49.46-1.78-11.62-4.73-22.84-7-34.29-3.12-15.65-1.52-30.7,6.79-45.37,10.92-19.29,24.21-27.11,42.11-23.88C186.21,69,188.63,69.65,189.49,69.85Z" transform="translate(-7.67 -34.59)"  /></g></svg>