<svg id="Layer_1" data-name="Layer 1" xmlns="http://www.w3.org/2000/svg" viewBox="0 0 469.55 488.18"><g id="yCUcVv"><path d="M96.57,339.29c-2.37,6.86-3.82,12.18-6,17.3-8.79,20.25-20.62,40-26.09,60.75C57,445.5,79.78,464,118.19,466c49.47,2.62,88-14.58,123.31-36.16.38-2.21,1-3.21.6-3.82-33.76-50.7-25.39-102-3.25-153.28,6.36-14.73,12.64-30.11,23.58-43,24.17-28.39,33.36-59.47,35.57-93.74.59.81.3-.3-.51-.6-31.31-11.53-28.89-31.6-21.82-51.83,4.32-12.37,12.09-24.06,20.5-40.27-2.85-6.3-7.78-17.2-14.05-31.1L339.36,31c2.24-4.91,4.47-9.8,7.33-16,6.54,1.72,12.77,2.37,17.48,4.75C399.36,37.45,428.38,58,443.06,90.13c14.8,32.37,30.15,63.54,25.51,98.79-1.58,12,7.68,24.5,8.79,36.93,1.74,19.66,0,39.48,1.25,59.18a93,93,0,0,0,7.21,31.51c8,18.11,17.53,36.2,8.81,55.15-11.76,25.54-35.89,45.65-61.37,63.33-18.48,12.83-46.3,11.66-70.8,10.11-20.7-1.3-37,3.14-52.11,13.09C249.7,498.22,177.18,504,101,498.87c-4.45-.3-8.87-.89-13.33-1.09-35.44-1.63-53.28-13.09-57.58-39.93-5.67-35.35,4.3-68.63,29.31-99C67,349.58,76.69,341.45,96.57,339.29Z" transform="translate(-28.55 -12.27)" style="fill:#fff"/></g></svg>