<?xml version="1.0" encoding="utf-8"?>
<!-- Generator: Adobe Illustrator 24.3.0, SVG Export Plug-In . SVG Version: 6.00 Build 0)  -->
<svg version="1.1" id="Layer_1" xmlns="http://www.w3.org/2000/svg" xmlns:xlink="http://www.w3.org/1999/xlink" x="0px" y="0px"
	 viewBox="0 0 469.5 488.2" style="enable-background:new 0 0 469.5 488.2;" xml:space="preserve">
<style type="text/css">
	.st0{fill:#231F20;}
</style>
<g id="yCUcVv">
	<path class="st0" d="M68,327c-2.4,6.9-3.8,12.2-6,17.3c-8.8,20.2-20.6,40-26.1,60.8c-7.5,28.2,15.3,46.7,53.7,48.7
		c49.5,2.6,88-14.6,123.3-36.2c0.4-2.2,1-3.2,0.6-3.8c-33.8-50.7-25.4-102-3.2-153.3c6.4-14.7,12.6-30.1,23.6-43
		c24.2-28.4,33.4-59.5,35.6-93.7c0.6,0.8,0.3-0.3-0.5-0.6c-31.3-11.5-28.9-31.6-21.8-51.8c4.3-12.4,12.1-24.1,20.5-40.3
		c-2.9-6.3-7.8-17.2-14.1-31.1l57.2,18.8c2.2-4.9,4.5-9.8,7.3-16c6.5,1.7,12.8,2.4,17.5,4.8c35.2,17.7,64.2,38.2,78.9,70.4
		c14.8,32.4,30.1,63.5,25.5,98.8c-1.6,12,7.7,24.5,8.8,36.9c1.7,19.7,0,39.5,1.2,59.2c0.5,10.8,3,21.5,7.2,31.5
		c8,18.1,17.5,36.2,8.8,55.1c-11.8,25.5-35.9,45.6-61.4,63.3c-18.5,12.8-46.3,11.7-70.8,10.1c-20.7-1.3-37,3.1-52.1,13.1
		c-60.7,40-133.2,45.8-209.4,40.6c-4.4-0.3-8.9-0.9-13.3-1.1c-35.4-1.6-53.3-13.1-57.6-39.9c-5.7-35.4,4.3-68.6,29.3-99
		C38.5,337.3,48.1,329.2,68,327z"/>
</g>
</svg>
