<svg id="Layer_1" data-name="Layer 1" xmlns="http://www.w3.org/2000/svg" viewBox="0 0 510.83 500.92"><g id="_1lFi1b.tif" data-name="1lFi1b.tif"><path d="M512.73,314.79q-1.08,3.81-2.14,7.62a68.28,68.28,0,0,1-17.68,30.74q-64.29,64.13-128.39,128.46a32.43,32.43,0,0,1-17.6,9.45c-23.16,4.43-46.26,9.17-69.37,13.8-14.95,3-27.81-9.41-24.91-24.45,4.75-24.62,9.61-49.23,15-73.72,1-4.39,3.93-8.88,7.17-12.15q52-52.43,104.42-104.46c8.59-8.58,16.88-17.47,25.71-25.78,17.69-16.65,38.26-23.73,62.26-16.7,24.69,7.22,39,24.19,44.42,49a27.29,27.29,0,0,0,1.12,3.22ZM299.55,458.07c11.07-2.25,20.95-4.49,30.92-6.18a18.62,18.62,0,0,0,10.67-5.62Q386.23,401,431.49,356c1.26-1.26,2.44-2.59,3.15-3.34l-30-30.47a31.64,31.64,0,0,1-3.09,4.27q-44.44,44.47-89,88.82c-3.82,3.78-6.34,7.72-7.21,13.12C303.77,438,301.64,447.49,299.55,458.07Zm166-136.69c8.35-8,7.92-20.74-1.27-29.59-8.05-7.75-21.08-7.49-28.27.47Z" transform="translate(-1.89 -5.41)"/><path d="M43.2,464.67H229.72v41.65H224.4q-89.55,0-179.11,0C17.37,506.3-1.92,483.66,2.53,456c14-86.66,62.67-146.37,141.72-182.51,1.34-.61,2.67-1.24,4.4-2-4.38-3.57-8.6-6.77-12.56-10.26-28.38-25-46.4-55.94-50.93-93.74C80.42,127.94,91.94,92.71,116.73,62,143,29.5,176.81,9.84,218.73,6c35.44-3.24,67.5,7,95.85,28.12C349.26,60,370.75,94.26,375.4,137.61c4.31,40.1-8.11,75.64-34.06,106.14-30.21,35.51-68.7,53.76-115.75,54-91.91.52-168.33,67.68-181.18,158.7C44.06,458.92,43.69,461.37,43.2,464.67ZM334.73,151.44c-.5-61.9-44.44-104.92-106.59-104.38-59.18.52-103,45.18-102.59,104.49.47,61.7,44.7,105,106.68,104.49C291.3,255.53,335.21,210.72,334.73,151.44Z" transform="translate(-1.89 -5.41)"/></g></svg>